<?xml version="1.0" encoding="UTF-8"?>
<svg id="Layer_1" xmlns="http://www.w3.org/2000/svg" version="1.1" viewBox="0 0 1080 1080">
  <!-- Generator: Adobe Illustrator 29.8.4, SVG Export Plug-In . SVG Version: 2.1.1 Build 6)  -->
  <path d="M599.96,26.52l2.51,7.5"/>
  <g>
    <path d="M153.48,553.41c22.01,30.99,43.37,62.68,67.59,92.02,5.89,7.13,13.08,16.1,19.96,22.12,1.19,1.04,7.93,6.66,9.34,5.29,10.59-82.25,7.88-165.92,20.49-247.95,4-26.04,9.63-51.9,18.55-76.66l118.23-165.92-25.85,105.21,35.22,139.41.83,1.08,62.29-110.92,65.97-36.68,40.47-226.89,37.54,224.09,38.03,181.73,108.69,177.81c.75.18,4.44-5.03,5.06-5.99,7.82-12.12,12.71-30.23,16.11-44.25,7.77-32.03,11.88-65.11,15.17-97.9l.84-4.46,57.79,134.87,49.95,28.37,10.75,40.66c-42.17,68.49-84.37,136.99-123.79,207.14l-79.93-158.54-.2-1.05c.12-1.22,4.41-4.54,5.58-5.5,26.3-21.42,62.57-39.82,97.06-41.08,4.38-.16,14.1-.41,17.23,2.78,4.94,5.05.27,15.06-1.7,20.61h34.22l26.14-33.15c-29.6-7.7-61.05-11.41-90.86-2.67-35.48,10.41-55.37,30.46-84.55,50.19-1.05.71-6.1,4.44-6.9,3.87l-54.87-114.31c-.74,0-.47,1.86-.44,2.35.47,6.86.84,13.75,1.29,20.6l-.64-.42c-16.01-36.18-31.65-72.54-47.74-108.69-1.39-3.13-2.77-6.82-4.75-9.49-1.68,19.75-3.95,39.48-6.06,59.19-3.2,5.63-9.5,11.92-12.16,17.61-.23.5-.61.91-.42,1.53l47.96,107.43,1.69-21.25,28.27,89.68-31.54,31.4c-64.89-20.31-137.12-10.77-194.92,24.37-28.04,17.05-48.69,46.02-69.18,71.08l-11.9,64.16c18.86,9.29,37.36,19.35,56.36,28.36l90.89-26.45c22.65-29.4,45.67-58.43,69.76-86.66,11.51-13.49,22.87-26.95,34.23-40.58,5.4-6.48,13.72-17.5,19.96-22.55,3.92-3.17,4.97-1.68,9.22.14,30.63,13.16,61.98,41.36,81.49,68.13,17.05,23.41,29.61,50.12,42.34,76.04l-20.14,8.06c-30.84-7.23-61.68-14.91-92.6-21.58-55.72,20.9-111.07,42.89-167.14,62.84-11.74,4.18-24.11,9-36.02,12.43-2.08.6-4.98,1.64-7.02,1.9-5.31.67-18.5-4.36-24.13-6.26-25.83-8.72-48.46-20.38-72.85-32.14l-48.51-39.48c-27.26-35.39-61.07-65.16-93.69-95.46l-52.08-297.97v-1.7ZM451.64,459.47h-162.57l59.02,27.49-19.91,142.97c13.62-10.11,30.78-14.77,47.06-18.82l16.07-27.93c2.19-35.71,1.97-71.57,3.58-107.36.04-.97.54-7.03.84-7.24l1.88-.14,40.25,8.65c21.15,16.87,41.17,37.51,58.85,58.04.47.54,3.08,3.58,2.99,3.83-13.22,18.16-27.48,36.8-44.43,51.66-7.15,6.26-17.41,14.26-26.38,17.4-2.75.96-6.02,1.37-8.75,2.3-.56.19-1.3.12-1.43.9,20.54,2.17,40.32,12.61,57.77,23.21,15.66,9.51,30.96,20.63,44.85,32.51l34.02,61.13c-2.68,20.01-6.08,39.95-10.83,59.57,10.37-.87,20.83-1.61,31.26-1.29,1,.03,1.93.42,2.94.46,1.98.09,3.99-.13,5.96-.01,1.8.11,12.61,1.63,13.02,1.02,5.17-22.67,7.77-45.88,11.44-68.85l-.25-1.87c-25.7-34.19-56.05-69.88-92.89-92.44-9.32-5.7-19.04-10.27-29.28-14.06,3.4-2.62,7.31-4.54,10.76-7.09,10.96-8.07,19.81-19.88,28.1-30.56l11.09-41.19c-17.18-16.95-34.47-33.97-52.93-49.54-6.01-5.07-12.57-10.52-19-15-2.51-1.75-10.56-7.31-13.1-7.73ZM505.73,670.84l-74.97-36.97-98.32,23.49-44.16,36.18-18.91,66.97c8.21,24.53,17.64,48.76,26.72,73.02l45.12,30.96c9.49,4.17,18.97,8.68,28.81,11.99,1.96.66,6.82,2.85,8.31,1.49,1.95-1.78,4.07-6.55,6.32-8.52-8.98-7.21-16.78-15.83-24.4-24.43-13.28-14.98-25.66-30.79-38.23-46.36-1.28-19.5-2.63-39.13-3.01-58.66l20.01-45.88,37.62-35.49c23.26-9.08,54.69-19.99,76.28-1.53,16.62,14.22-1.89,29.3-9.06,42.82l-.43,27.88,31.58,26.26,1-.72c5.71-6.67,10.61-15.42,16.42-21.84,2.68-2.95,12.56-9.51,13.61-11.9,1.13-2.56,6.66-20.33,6.62-22.32l-6.94-26.46Z"/>
    <path d="M632.46,813.6c.9,1.26-2.82,5.64-3.62,6.72-11.92,16.11-30.21,34.12-44.36,48.73-29.81,30.77-77.07,78.81-115.89,95.78-40.76,17.82-73.16-3.78-65.91-48.91,8.57-53.36,68.37-90.83,116.34-104.69,37.14-10.73,76.92-10.69,113.44,2.38ZM586.17,813.56c-18.29-1.17-36.67.25-54.52,4.34-21.9,36.53-59.81,63.8-103.72,63.75l-2.42,3.32c22.03.43,44.46-2.2,65.81-7.51,34.26-8.52,69.58-27.08,90.27-56.37.57-.81,4.98-7.17,4.58-7.53Z"/>
    <path d="M703.9,838.21l-25.07-14.67c-10.71-6.04-22.54-9.58-33.58-14.87l28.68-29.96,29.96,59.5Z"/>
  </g>
</svg>