<?xml version="1.0" encoding="UTF-8"?>
<svg id="Layer_2" data-name="Layer 2" xmlns="http://www.w3.org/2000/svg" viewBox="0 0 897.02 320.52">
  <defs>
    <style>
      .cls-1 {
        fill: #ddd;
      }

      .cls-2 {
        fill: #189ac6;
      }
    </style>
  </defs>
  <g id="Layer_1-2" data-name="Layer 1">
    <path class="cls-2" d="M560.73,112.34l-9.42,6.45c-6.04,4.13-14.25,6.45-22.83,6.45h-21.26l-5.59-3.78-3.95-2.67,3.9-2.67c3.54-2.42,8.35-3.78,13.38-3.78h45.77Z"/>
    <g>
      <path class="cls-1" d="M511.49,223.57l9.12,1.19c-1,6.29-3.55,11.21-7.65,14.76s-9.15,5.33-15.12,5.33c-7.49,0-13.51-2.45-18.06-7.34-4.55-4.9-6.83-11.91-6.83-21.05,0-5.91.98-11.08,2.94-15.51,1.96-4.43,4.94-7.76,8.94-9.97,4-2.22,8.36-3.32,13.06-3.32,5.94,0,10.8,1.5,14.58,4.51,3.78,3.01,6.2,7.27,7.27,12.81l-9.02,1.39c-.86-3.68-2.38-6.44-4.56-8.3-2.18-1.85-4.82-2.78-7.91-2.78-4.67,0-8.47,1.67-11.39,5.02s-4.38,8.65-4.38,15.9,1.41,12.69,4.23,16.03c2.82,3.33,6.49,5,11.03,5,3.64,0,6.68-1.12,9.12-3.35s3.99-5.67,4.64-10.31Z"/>
      <path class="cls-1" d="M528.34,243.62v-75.55h9.28v75.55h-9.28Z"/>
      <path class="cls-1" d="M587.86,243.62v-8.04c-4.26,6.18-10.05,9.28-17.37,9.28-3.23,0-6.24-.62-9.04-1.85-2.8-1.24-4.88-2.79-6.24-4.66-1.36-1.87-2.31-4.17-2.86-6.88-.38-1.82-.57-4.71-.57-8.66v-33.91h9.28v30.35c0,4.84.19,8.11.57,9.79.58,2.44,1.82,4.35,3.71,5.75s4.23,2.09,7.01,2.09,5.39-.71,7.83-2.14c2.44-1.42,4.17-3.37,5.18-5.82s1.52-6.02,1.52-10.69v-29.32h9.28v54.73h-8.3Z"/>
      <path class="cls-1" d="M619.24,243.62h-8.61v-75.55h9.28v26.95c3.92-4.91,8.92-7.37,15-7.37,3.37,0,6.55.68,9.56,2.04,3.01,1.36,5.48,3.26,7.42,5.72,1.94,2.46,3.46,5.42,4.56,8.89,1.1,3.47,1.65,7.18,1.65,11.13,0,9.38-2.32,16.63-6.96,21.75-4.64,5.12-10.2,7.68-16.7,7.68s-11.53-2.7-15.2-8.09v6.85ZM619.14,215.84c0,6.56.89,11.3,2.68,14.22,2.92,4.78,6.87,7.16,11.85,7.16,4.05,0,7.56-1.76,10.51-5.28,2.95-3.52,4.43-8.77,4.43-15.74s-1.42-12.42-4.25-15.82c-2.83-3.4-6.26-5.1-10.28-5.1s-7.56,1.76-10.51,5.28c-2.96,3.52-4.43,8.62-4.43,15.28Z"/>
    </g>
    <path class="cls-1" d="M488.06,94.54s-.57,16.23,0,26.41v27.52c-9.68,0-17.52-7.84-17.52-17.52v-44.76l9.22-9.98h50.61c9.95,0,30.34,8.07,30.34,18.02h0s-72.67.32-72.67.32Z"/>
    <path class="cls-2" d="M201.63,206.74v-111.07h0c31.5,0,57.03,21.69,57.03,48.44v131.14s-21.6-18.35-21.6-18.35l-18.72-15.9c-10.7-9.09-16.71-21.41-16.71-34.26Z"/>
    <path class="cls-2" d="M35.43,17.13C48.35,6.16,65.86,0,84.13,0h92.43s20.17,17.13,20.17,17.13l4.9,4.16,30.53,25.93,4.9,4.16-35.43,30.09v-34.25S0,47.23,0,47.23"/>
    <path class="cls-1" d="M403.26,56.23h0c-12.92-10.97-30.43-17.13-48.7-17.13h-92.43s-20.17,17.13-20.17,17.13l-4.9,4.16-30.53,25.93-4.9,4.16c5.5-.53,13.14-.52,21.89,1.89,5.36,1.48,9.9,3.51,13.54,5.5,0-3.85,0-7.7,0-11.55h201.63s-30.53-25.93-30.53-25.93l-4.9-4.16Z"/>
    <path class="cls-2" d="M336.58,227.56c.03,1.72.05,3.07.05,3.66-.08,14.64-.27,29.37-.22,44.04h-4.99c.12-16.07.1-32.15.11-48.24,1.66.16,3.34.34,5.05.54Z"/>
    <path class="cls-1" d="M366.61,233.11c39.87,10.19,55.98,28.98,72.08,42.15h-79.52s.18-43.86.18-43.86c2.39.53,4.8,1.09,7.26,1.71Z"/>
    <path class="cls-1" d="M265.41,226.81h15.63c-.08,16.15-.12,32.29-.12,48.44h-15.51v-48.44Z"/>
    <path class="cls-2" d="M303.8,226.81h4.91c-.04,16.15-.03,32.3-.03,48.44h-4.92c.11-16.14.06-32.3.05-48.44Z"/>
    <path class="cls-2" d="M281.18,205.23c.04-5.24-1-20.71,1.02-24.53,5.43-10.3,21.58-7.05,21.81,4.79-.2,13.76-.22,27.54-.2,41.33h-22.76c.04-7.2.07-14.39.13-21.59Z"/>
    <path class="cls-2" d="M280.92,317.76c0-14.17-.01-28.34,0-42.5h22.84c-.1,15.11-.35,30.2-.94,45.26"/>
    <path class="cls-2" d="M330.91,310.02c-3.24,7.51-14.55,3.82-20.99,4.73-.74-.02-1.26-.38-1.38-1.12.11-12.79.13-25.58.14-38.38h22.75c-.08,11.6-.23,23.19-.52,34.76Z"/>
    <path class="cls-2" d="M308.71,226.81c.01-4.93.01-9.86.04-14.78.04-8-.18-16.11.59-24.07.83-.58,14.71-.3,16.27.12,3.03.8,5.56,2.81,6.01,6.07-.07,10.95-.08,21.91-.09,32.88-.73-.07-1.46-.15-2.18-.21h-20.64Z"/>
    <path class="cls-2" d="M359.12,288.23c-1.61,10.09-14.43,5.22-21.41,6.48l-1.06-.41c-.16-6.32-.21-12.68-.24-19.04h22.76s-.05,12.97-.05,12.97Z"/>
    <path class="cls-2" d="M337.01,208.56c7.8.27,22.4-3.62,22.4,8.3l-.06,14.54c-8-1.76-15.63-3-22.77-3.84-.11-6.44-.31-18.48.43-19Z"/>
    <path class="cls-2" d="M78.45,126.32h5.09c0,15.88,0,31.75.14,47.61-1.69-.2-3.37-.44-5.03-.72.11-15.6-.11-31.3-.2-46.89Z"/>
    <path class="cls-2" d="M106.37,126.32h4.89c-.03,16.15-.06,32.31.1,48.44h-4.96c-.02-16.15,0-32.3-.02-48.44Z"/>
    <path class="cls-2" d="M137.68,126.32c15.13,0,29.64,5.1,40.33,14.19l11.81,10.03-11.81,10.03-16.71,14.19h-27.15c0-16.15-.02-32.3-.09-48.44h3.61Z"/>
    <path class="cls-2" d="M0,126.32h55.72s.17,40.56.17,40.56c-10.07-4.03-19.35-9.53-27.37-16.34"/>
    <path class="cls-2" d="M134.15,211.72c-1.37,11.47-17.51,13.46-21.89,2.75-.53-13.21-.77-26.45-.9-39.71h22.8c0,12.32,0,24.64,0,36.95Z"/>
    <path class="cls-2" d="M111.07,79.45c.24-11.84,16.38-15.09,21.81-4.79,2.01,3.82.97,19.29,1.02,24.53.08,9.04.13,18.09.17,27.14h-22.8c.02-15.64.03-31.27-.2-46.88Z"/>
    <path class="cls-2" d="M83.45,88.11c.44-3.26,2.98-5.26,6.01-6.07,1.56-.42,15.44-.7,16.27-.12.77,7.96.54,16.07.59,24.07.04,6.78.05,13.56.06,20.33h-22.84c0-12.74,0-25.49-.09-38.22Z"/>
    <path class="cls-2" d="M106.4,174.77c.01,10.94.04,21.88.13,32.83-.12.73-.64,1.1-1.38,1.12-6.44-.91-17.74,2.78-20.99-4.73-.25-10-.4-20.02-.49-30.05,4.51.54,9.08.83,13.68.83h9.04Z"/>
    <path class="cls-2" d="M55.66,110.82c0-11.92,14.6-8.03,22.4-8.3.94.66.36,19.86.38,22.66,0,.38,0,.76,0,1.14h-22.72s-.06-15.51-.06-15.51Z"/>
    <path class="cls-2" d="M78.42,188.26l-1.06.41c-6.98-1.27-19.8,3.61-21.41-6.48l-.06-15.3c7.23,2.89,14.87,5.02,22.75,6.33-.04,5.03-.1,10.04-.22,15.04Z"/>
    <text/>
    <g>
      <path class="cls-2" d="M628.02,95.57c-.45.49-1.03.76-1.61,1.05v22.43c0,5.49-4.56,10.04-10.04,10.04h-27.26c-.18.92-.7,1.78-1.42,2.46v16.9h28.68c16.17,0,29.4-13.23,29.4-29.4v-23.49h-17.75Z"/>
      <path class="cls-1" d="M597.73,76.21c-16.17,0-29.4,13.23-29.4,29.4v23.49h19.36v-23.49c0-5.48,4.55-10.04,10.04-10.04h28.68v-19.36h-28.68Z"/>
      <path class="cls-1" d="M714.69,130.18l14.7,18.28h-24.55l-11.7-14.56h-21.84v14.56h-19.36v-72.26h58.09v19.36h-38.73v18.98h29.23c5.22,0,9.49-4.27,9.49-9.49v-9.49h19.37v9.49c0,10.74-5.95,20.16-14.7,25.12Z"/>
      <path class="cls-1" d="M753.34,105.61v23.5h38.73v-7.09h-19.36v-19.36h38.73v45.8h-77.45v-42.85c0-16.17,13.23-29.4,29.4-29.4h48.04v19.36h-48.04c-5.49,0-10.04,4.56-10.05,10.04Z"/>
      <path class="cls-1" d="M838.92,95.57v33.54h58.09v19.36h-77.45v-72.26h77.45v19.36h-58.09Z"/>
    </g>
    <path class="cls-2" d="M897.02,106.57l-8.42,5.76c-5.39,3.69-12.72,5.76-20.39,5.76h-18.99l-4.99-3.38-3.53-2.39,3.48-2.39c3.16-2.16,7.46-3.38,11.95-3.38h40.88Z"/>
  </g>
</svg>