<?xml version="1.0" encoding="UTF-8"?>
<svg id="Layer_1" data-name="Layer 1" xmlns="http://www.w3.org/2000/svg" viewBox="0 0 1168.34 511.81">
  <defs>
    <style>
      .cls-1 {
        fill: #fadd17;
      }
    </style>
  </defs>
  <g>
    <g>
      <g>
        <path class="cls-1" d="M363.89,488.68c-13.73-6.6-46.78-23.27-58.24-9.01-13.87,9.59-8.59,19.65-11.61,32.13-3.39-.82-6.11-1.89-9.47-3.43-2.81-21.08,2.08-31.72,21.73-39.96,7.12-15.01,9.43-30.7,11.05-47.54,2.86,14.18,2.78,31.36-5.56,45.2,17.04-6,33.03-11.02,49.56-18.94.6,2.91.33,4.46,3.03,6.66-12.34,6.72-25.3,10.72-39.63,15.71,14.31,3.04,28.84,7.19,39.13,19.2Z"/>
        <path class="cls-1" d="M368.31,443.49l13.13-6.79c1.09-.28,2.18,1.53,3.3,1.39,1.59-1.72,1.96-4.23,3.8-5.48l15.36-10.4c2.14-1.45,3.26-2.3,5.21-4.13l13.32-12.53c2.34-2.21,4.45-2.53,7.13-1.65.73-4.4,2.51-7.76,5.64-10.69,9.95-9.3,18.48-19.5,26.54-30.48.76-.95,2.75-.3,3.72-1.02,1.04-10.01,3.03-10.69,7.47-19.68l5.36,2.25c-5.34,10.96-16.19,29.24-24.49,37.53-3.01,3-4.84,6.68-7.06,10.11-4.06,6.27-10.8,9.73-15.9,15.03-2.61,2.71-4.62,5.72-7.75,8.17l-22.96,17.94c-3.81,2.98-7.93,4.75-11.97,7.19-10.54,6.36-3.5,5.66-24.37,8.54.34-2.52,2.26-4.12,4.51-5.29Z"/>
        <path class="cls-1" d="M487.82,312.36c1.08-6.17,6.49-57.7,5.4-51.29l1.69-9.96c1.43-8.46-2.79-17.09-3.17-25.76l-.47-10.76c-.24-5.47-5.11-10.67-2.83-16.73,13.39,47.72,12.12,101.96-9.96,145.53-.56-5.16-.97-9.99.62-14.4l5.31-14.72c.38-1.05,3.2-.69,3.42-1.91Z"/>
        <path class="cls-1" d="M495.13,128.27c13.18,13.56,6.36,31.38-4.75,42.71-5.94-14.21-4.83-29.93,4.75-42.71Z"/>
        <path class="cls-1" d="M485.53,398.18c-7.85,15.29-28.67,13.67-42.17,7.91,11.76-10.26,27.4-13.63,42.17-7.91Z"/>
        <path class="cls-1" d="M408.79,95.94c13.83.95,32.51,8.64,39.67,20.92-17.01,3.54-33.76-4.03-39.67-20.92Z"/>
        <path class="cls-1" d="M462.8,149.55c-15.55,1.92-32.75-4.95-39.16-20.35,15.95-.66,32.4,5.86,39.16,20.35Z"/>
        <path class="cls-1" d="M477.54,140.47c-9.84-11.13-8.27-30.91-2.98-43.22,8.1,6.03,10.66,14.79,9.68,23.93-.93,6.71-3.06,12.72-6.69,19.3Z"/>
        <path class="cls-1" d="M507.71,163.52c12.36,14.61,5.04,32.01-8.16,42.49-2.46-13.4-.78-32.28,8.16-42.49Z"/>
        <path class="cls-1" d="M501.69,373.42c-5.76,15.5-28.26,14.33-40.62,11.41,9.56-12.45,26.02-16.42,40.62-11.41Z"/>
        <path class="cls-1" d="M499.6,307.27c-1.03-14.28,14.84-25.69,26.78-31.05,2.83,16.01-11.27,27.67-26.78,31.05Z"/>
        <path class="cls-1" d="M473.39,176.1c-15.79,4.91-32.67-2.35-38.79-18.2,15.25-.23,29.18,5.62,38.79,18.2Z"/>
        <path class="cls-1" d="M404.58,408.27c-5.65-5.13-8.61-12.52-9.78-20.11-.27-7.86,2.06-15.05,7.72-21.52,7.33,12.38,8.99,27.16,2.06,41.63Z"/>
        <path class="cls-1" d="M452.71,63.29c13.55,10.3,11.79,30.85,6.31,44.29-9.02-12.93-12.06-29.23-6.31-44.29Z"/>
        <path class="cls-1" d="M483.47,275.44c-15.69-3.68-23.38-21.68-22.71-35.75,12.28,7.17,24.84,20.91,22.71,35.75Z"/>
        <path class="cls-1" d="M527.34,238.11c6.04,13.92-8.29,29.38-20.2,36.49-3.46-15.03,8.36-28.68,20.2-36.49Z"/>
        <path class="cls-1" d="M444.43,444.35c-10.14,13.27-29.97,6.07-41.56-2.04,11.88-5.43,30.63-6.7,41.56,2.04Z"/>
        <path class="cls-1" d="M479.96,303.11c-15.64-4.94-24.9-20.75-23.05-37.56,12.36,8.98,21.38,21.44,23.05,37.56Z"/>
        <path class="cls-1" d="M362.72,435.91c-10.2-12.2-8.59-30.13,3.08-41.05,5.99,13.43,4.98,27.94-3.08,41.05Z"/>
        <path class="cls-1" d="M505.35,241.13c-3.31-14.28.84-30.94,13.51-40.14,1.84,5.71,1.27,11.31.88,16.92-1.71,9-5.41,17.01-14.39,23.22Z"/>
        <path class="cls-1" d="M524.64,309.67c-.77,16.51-19.48,24.55-33.43,24.07,5.6-12.49,20.12-20.79,33.43-24.07Z"/>
        <path class="cls-1" d="M515.96,343.18c-6.82,12.55-21.73,23-36.47,17.13,8.74-10.3,23.3-20.2,36.47-17.13Z"/>
        <path class="cls-1" d="M441.75,373.52c-11.37-9.88-16.37-27.68-7.02-40.49,3.43,5.54,5.53,10.99,7.69,16.78,1.78,7.66,3.17,15.24-.67,23.71Z"/>
        <path class="cls-1" d="M459.08,351.88c-15.39-5.5-17.91-25.8-14.79-39.32,3.72,2.06,4.3,5.91,6.5,8.9,6.34,8.6,9.8,18.56,8.29,30.42Z"/>
        <path class="cls-1" d="M424.76,392.07c-13.66-8.93-13.03-26.74-5.2-39.55,8.65,9.79,8.65,25.82,5.2,39.55Z"/>
        <path class="cls-1" d="M417.74,462.52c-13.22,7.98-30.3,2.6-41.29-8.11,12.58-2.86,32.1-2.15,41.29,8.11Z"/>
        <path class="cls-1" d="M471.06,331.39c-13.8-7.04-20.85-22.55-17.15-37.72,11.5,8.98,18.07,22.03,17.15,37.72Z"/>
        <path class="cls-1" d="M480.37,207.88c-7.56.74-14.45-2.01-20.64-5.4-6.46-4.44-10.26-11.22-9.08-19.38,12.27,3.88,23.23,11.82,29.72,24.78Z"/>
        <path class="cls-1" d="M463.56,422.23c-8.09,13.23-30.23,9.37-41.02,3.62,12.53-8.17,27.05-7.96,41.02-3.62Z"/>
        <path class="cls-1" d="M486.86,243.52c-14.41-2.31-26.35-14.12-25.83-29.99,12.69,5.23,23.23,15.15,25.83,29.99Z"/>
        <path class="cls-1" d="M384.57,423.95c-6.85-11.66-10.62-29.99-1.43-43.05,3.43,6.38,5.07,13.03,5.94,20.13.52,7.75-.11,14.93-4.5,22.91Z"/>
        <path class="cls-1" d="M478.83,168.02c-1.46-.22-2.5-2.52-1.38-3.6.54-.52,2.42,1.27,1.38,3.6Z"/>
        <path class="cls-1" d="M476.83,163.05c-1.46-.42-2.48-2.22-1.42-3.76.78-.1,2.36,1.28,1.42,3.76Z"/>
        <path class="cls-1" d="M479.41,169.55c.35-.73.95.35,1.24.6.85.74.44,1.83-.14,1.95-1.34.28-2.05-.59-1.1-2.56Z"/>
        <circle class="cls-1" cx="481.57" cy="174.09" r=".63"/>
        <circle class="cls-1" cx="474.57" cy="157.09" r=".63"/>
        <path class="cls-1" d="M433.3,82.55c-13.34-6.18-29.38-18.77-27.69-34.26,14.13,4.06,31.13,16.46,27.69,34.26Z"/>
      </g>
      <g>
        <path class="cls-1" d="M408.12,332.11c-14.37,12.18-28.37,4-40.37-7.7-.26,7.42,2.34,14.04,6.58,19.54l9.4,12.17c-9.87,6.62-19.83,11.75-30.78,14.96-6.31,1.85-11.92.04-16.09-4.95l-6.24-7.46c-.61,6.66,3.03,11.39,5.16,17.1-6.42,1.79-12.89,2.49-19.67,2.29l-4.42-20.41c16.47-6.42,30.74-16.6,39.77-32.01,8.84-15.1,12.88-32.26,11.9-49.7-.88-15.68-7.88-29.38-19.77-39.33-5.93-4.96-12.2-8.99-18.49-13.47-5.38-3.83-6.86-10.22-2.93-15.87l14.4-20.69c15.1-21.69,4.1-35.56,11.17-50.37,5.46-11.44,17.73-15.33,28.54-9.36,15.46,8.53,23.07,25.48,18.31,42.73-4.37,15.84-14.59,28.07-28.69,37.14,5.87,1.3,10.66-1.27,15.53-3.43,14.48-6.43,26.56-16.24,34.88-30.68,7.86,12.3,10.75,26.08,9.12,40.5-2.41,21.28-21.22,28.44-40.48,30.08,12.05,9.46,38.49,3.15,50.7-3.9,1.67,9.77,1.83,19.36-.38,28.75-2.89,12.27-12.55,20.18-25.31,20.08-8.39-.06-15.7-3.36-24.23-5.87,4.58,12.81,25.61,22.25,38.82,23.97-3.07,10.1-8.48,19.15-16.44,25.9Z"/>
        <path class="cls-1" d="M284.91,382.37c-31.02-5.29-69.76-54.42-53.37-85.59,4.05-7.7,12.1-12.84,20.71-10.8,21.92,5.19-5.08,60.25,19.87,84.15l12.79,12.25Z"/>
        <path class="cls-1" d="M237.34,376.07l26.12,10.18c-23.83-.11-46.79-3.27-68.18-12.06-16.97-6.97-25.72-25.64-19.55-42.22,1.07-2.87,3.62-4.07,5.83-5.1,1.95-.91,5.52.23,7.27,2.49l20.59,26.4c7.16,9.18,16.99,15.28,27.92,20.3Z"/>
        <path class="cls-1" d="M343.39,257.58c-4.09,4.82-23.93-4.63-35.59,4.3l-14.95,11.45c6.55-15.94,21.66-24.56,38.25-26.04,3.28-.29,7.33-1.38,9.62,1.34,1.63,1.94,5.34,5.8,2.67,8.94Z"/>
        <path class="cls-1" d="M348.73,284.71c-4.36,6.19-13.67-6.15-27.44-5.29-6.4.4-11.06,4.38-17.98,6.03,8.22-13.56,30.96-15.21,44.26-10.57,2.65,1.28,2.69,7.67,1.17,9.83Z"/>
        <path class="cls-1" d="M309.66,377.3c-8.71.35-22.7-5.16-25.54-15.55,8.49-.01,16.56-.89,25.3-3.44.63,6.32.28,12.19.25,18.99Z"/>
        <path class="cls-1" d="M345.46,304.73c1.94,1.7-1.35,7.51-3.54,8.31-2.78,1.01-5.73-1.34-7.36-3.38-6.14-7.64-13.73-11.57-23.82-13.84,8.28-4.24,28.4,3.37,34.72,8.91Z"/>
        <path class="cls-1" d="M330.96,327.36c1.2,2.96-4.16,7.62-7.01,7.18-1.98-9.32-6.66-16.42-15.02-20.06,9.25-1.08,18.52,4.18,22.04,12.89Z"/>
        <path class="cls-1" d="M246.12,371.29c-18.57-7.24-51.44-37.99-47.4-59.66,1.24-6.66,9.39-12.42,15.54-8.57,5.34,3.34,6.68,32.76,12.47,41.6,3.71,10.64,11.87,17.08,19.39,26.63Z"/>
        <circle class="cls-1" cx="204.57" cy="278.59" r=".5"/>
        <path class="cls-1" d="M302.7,201.2c-7.81,1.95-14.41-1.86-17.71-8.21-7.54-14.49-19.17-25.07-35.09-29.66l-35.01-10.09c-28.04-8.08-51.57-26.44-65.33-53.36,11.82,4.15,21.79,8.29,33.77,9.3-9.84-11.42-17.59-16.17-21.19-32.09,21.1,15.44,67.04,17.92,92.94,17.91l58.98-.04c10.87,3.88,16.33,50.06,17.4,61.06.72,7.44,1.4,14.97-1.51,22.05-4.66,11.32-14.9,20.07-27.25,23.15ZM213.47,113.13c0-5.72-4.63-10.35-10.35-10.35s-10.35,4.63-10.35,10.35,4.63,10.35,10.35,10.35,10.35-4.63,10.35-10.35Z"/>
      </g>
    </g>
    <g>
      <path class="cls-1" d="M175.82,255.12c4.31-13.82,10.47-25.84,17.34-37.79,7.33-12.77,18.71-11.61,31.14-16.8-9.71-1.95-19.53-2.2-29.4.35l-42.42,32.79c7.39-12.4,16.65-23.39,26.68-33.34,6.96-6.9,14.62-11.12,24.18-13.18,17.34-3.74,34.86-5.03,52.69-5.62,7.47-.25,11.99,4,13.86,11.07.78,2.93,1.81,5.95.28,8.92-4.48,8.67-46.87,10.39-63.19,16.55-3.52,1.33-5.84,5.04-8.05,7.84l-23.11,29.2Z"/>
      <path class="cls-1" d="M229.44,243.83l-24.22,33.7c2-13.69,8.45-26.64,15.48-38.77,2.55-4.39,6.19-7.07,10.73-9.21,15.68-7.38,32.15-12.89,49.53-15.19,3.69-.49,6.86,5.48,6.62,8.25-.3,3.31-3.08,5.18-5.86,6.23-18.02,6.82-34.64,7.75-52.28,14.99Z"/>
      <g>
        <path class="cls-1" d="M208.47,474.06c-16.71,1.22-29.92,8.03-45.32,15.53,10.73-11.17,24.97-17.52,41.29-19.96-13.73-4.77-27.03-8.94-39.96-15.71,1.9-1.9,2.74-3.72,2.93-6.66,15.9,7.11,31.68,12.94,49.01,18.34-7.24-14.46-8.33-29.91-4.72-44.68,1.13,16.32,3.62,32.44,10.89,47.55,19.86,8.32,24.14,18.71,21.77,39.61-3.15,1.74-5.88,2.84-9.55,3.72-3.32-13.65,2.41-21.5-11.76-32.67-4.3-3.39-8.14-5.55-14.57-5.08Z"/>
        <path class="cls-1" d="M119.59,418c2.45,2.27,3.02,2.84,5.36,4.4l14.93,9.94c2.47,1.65,2.92,4.96,4.69,6.72.93-.78,1.39-2.61,2.2-2.54l13.32,6.79c2.34,1.19,4.45,2.61,4.97,5.4-20.93-1.74-19.86-6.25-24.64-8.64-7.22-3.6-13.32-7.93-19.45-12.99-6.59-5.44-13.8-9.93-19.62-16.29-2.14-2.34-3.76-4.63-6.39-6.71-19.31-15.21-9.91-12.23-20.72-23.09-5.97-6-9.85-12.74-14.32-19.88-10.91-17.44-18.97-36.39-23.3-56.55-2.23-10.36-4.06-19.84-4.59-30.57-1.4-27.96,1.85-55.38,10.1-82.62.5,6.34-1.51,12.99-3.49,18.69-1.15,3.3-.84,4.83-1.21,8.22l-3.65,33.77,1.71,8.07c2.98,14.05,5.27,28.81,5.43,42.95l.1,8.98c.01,1.14,2.13,1.22,3.29,1.76l5.49,15.43c1.7,4.79.26,9.77,1.23,14.89l4.99-2.12c2.33,5.2,6.16,9.6,6.69,15.25l.39,4.16c.12,1.24,2.99.12,3.66,1.03,9.05,12.22,18.76,23.39,29.76,33.94,2.04,1.95,1.63,5.12,2.8,7.58,1.02.14,3.25-1.72,4.39-.68l15.89,14.69Z"/>
        <path class="cls-1" d="M38.35,170.99c-11.8-12.41-17.33-29.67-4.74-42.65,9.38,11.99,10.99,28.25,4.74,42.65Z"/>
        <path class="cls-1" d="M85.48,406.08c-13.07,5.32-33.52,7.93-42.11-7.7,14.03-6.11,30.22-2.59,42.11,7.7Z"/>
        <path class="cls-1" d="M29.26,205.87c-13.69-10.64-20.24-27.89-8.05-42.67,9.04,12.5,10.4,27.62,8.05,42.67Z"/>
        <path class="cls-1" d="M67.63,384.86c-13.61,3.07-35.04,3.58-40.5-11.51,14.59-4.8,31-1.1,40.5,11.51Z"/>
        <path class="cls-1" d="M29.24,307.11c-8.4-1.47-15.32-5.69-20.96-11.09-4.53-5.77-7.29-12.31-5.88-19.74,7.09,3.11,13.36,7.21,18.77,12.68,4.48,4.83,8.32,10.1,8.07,18.16Z"/>
        <path class="cls-1" d="M21.7,274.47c-10.87-6.13-26.31-21.84-20.39-36.22,6.41,3.63,11.38,8.93,15.72,14.79,3.52,6.3,6.6,12.43,4.67,21.43Z"/>
        <path class="cls-1" d="M126.23,366.63c11.73,13.29,9.3,29.46-1.88,41.93-6.83-13.82-5.76-28.67,1.88-41.93Z"/>
        <path class="cls-1" d="M68.05,239.74c.32,14.93-6.77,31.25-22.45,35.87-3.16-13.93,10.39-29.15,22.45-35.87Z"/>
        <path class="cls-1" d="M125.99,442.23c-10.7,7.59-30.74,15.64-41.43,2.46,9.05-9.11,29.76-7.8,41.43-2.46Z"/>
        <path class="cls-1" d="M166.3,435.99c-7.99-12.19-9.61-27.16-3.34-40.95,11.91,10.98,13.11,28.04,3.34,40.95Z"/>
        <path class="cls-1" d="M49.05,303.18c.98-15.57,10.38-28.53,22.76-37.63,1.75,16.47-6.44,31.83-22.76,37.63Z"/>
        <path class="cls-1" d="M9.76,201.22c12.25,7.29,16.85,25.45,14.01,40.27-13.31-9.11-17.44-24.98-14.01-40.27Z"/>
        <path class="cls-1" d="M69.88,352.09c-1.84-10.83,1.43-21.5,7.9-30.32,2.31-3.14,3.09-7,6.75-9.43,1.62,7.66,1.56,15.8-.62,23.67-2.39,6.82-6.25,12.68-14.03,16.08Z"/>
        <path class="cls-1" d="M57.75,331.75c-1.15-15.03,5.3-29.13,17.24-38.06,3.62,15.55-3.55,30.12-17.24,38.06Z"/>
        <path class="cls-1" d="M87.3,373.56c-6.83-11.98.32-29.71,6.71-40.55,5.83,8.18,6.34,17.91,2.69,26.71-2.2,4.96-4.61,9.46-9.4,13.84Z"/>
        <path class="cls-1" d="M104.13,391.99c-3.55-11.99-3.73-30.17,5.2-39.38,7.3,12.27,8.81,30-5.2,39.38Z"/>
        <path class="cls-1" d="M49.22,360.37c-14.77,5.63-29.17-4.26-36.46-17.21,7.1-1.48,13.18.3,19.17,3.08,6.56,3.48,12.04,7.91,17.29,14.13Z"/>
        <path class="cls-1" d="M37.46,333.82c-6.96.29-12.85-1.76-18.76-4.14-7.81-3.96-13.83-10.56-14.72-20,7.93,1.8,14.7,5.16,21.09,9.42,5.02,3.9,9.51,7.84,12.39,14.73Z"/>
        <path class="cls-1" d="M78.12,182.96c2.41,17.03-14.7,25.07-29.68,25.21,5.85-12.54,16.82-20.8,29.68-25.21Z"/>
        <path class="cls-1" d="M152.43,454.29c-10.9,10.49-26.83,16.25-41.61,8.38,9.12-10.19,27.99-11.09,41.61-8.38Z"/>
        <path class="cls-1" d="M41.88,243.59c2.56-14.64,13.21-24.84,25.89-30.11.49,15.89-11.13,27.59-25.89,30.11Z"/>
        <path class="cls-1" d="M106.1,425.94c-12.24,6.17-32.76,8.9-40.96-3.52,13.47-4.6,28.58-4.86,40.96,3.52Z"/>
        <path class="cls-1" d="M144.28,423.49c-7.97-11.65-4.61-31.52,1.37-42.74,4.59,6.78,5.66,13.9,5.44,21.4-.84,7.38-2.39,14.2-6.81,21.34Z"/>
        <path class="cls-1" d="M84.48,171.14c-8.6,6.51-18.84,7.93-29,5.08,4.54-6.06,9.78-10.62,16.34-13.32,4.23,3.27,8.08,5.47,12.66,8.24Z"/>
        <path class="cls-1" d="M51.73,140.09c-3.63-3.86-4.77-9.14-6.3-14.37,3.64,4.18,5.3,8.75,6.3,14.37Z"/>
        <path class="cls-1" d="M50.54,167.07c-1.01-.99-.79-2.71,1.06-3.95,1.01.99.79,2.71-1.06,3.95Z"/>
        <path class="cls-1" d="M49.62,168.29c.66-.27.79,2.56-.07,2.81-.69.2-1.34-.04-1.49-.54-.24-.79.26-1.75,1.56-2.27Z"/>
        <circle class="cls-1" cx="52.57" cy="161.09" r=".63"/>
      </g>
      <g>
        <path class="cls-1" d="M164.92,18.75c-19.93,4.63-37.3,13.6-50.98,28.14-19.33,20.55-28.32,48.39-22.85,76.16,3.26,16.57,12.22,30.64,26.17,39.96,15.53,1.95,30.3-2.56,42.33-12.29,2.87-2.32,9.13-6.52,11.72-3.35.99,1.21.88,3.29-.45,4.63-9.18,9.24-20.48,14.52-33.17,19.17,20.04,6.12,40.22-.11,56.11-12.26,2-1.53,4.52.64,5.71,1.67,1.48,1.28,3.14,5.23,1.01,7.12-23.55,20.87-61.83,21.1-87.85,3.63-26.67-2.32-48.39-18.92-57.69-44.44-11.17-30.66-6.49-64.93,11.32-92.34C89-.39,135.42-10.44,170.97,11.85c54.58-5.38,81.65,19.61,129.95,35.39,13.21,4.85,25.98,6.56,40.36,5.9-10.28,5.72-40.26-2.62-51.39-6.96l-46.71-18.22c-18.38-7.17-43.83-15-63.99-10.99,20.69,17.82,35.86,30.06,61.12,37.92-13.22-.02-25.2-5.89-35.41-13.59l-29.01-21.89c-3.04-2.3-6.94-1.6-10.98-.66Z"/>
        <path class="cls-1" d="M98.17,116.52c-2.1-4.43-1.36-9.34-1.05-14.21,7.54-3.31,14.62-5.82,22.93-6.35-3.66,9.81-10.87,17.21-21.88,20.56Z"/>
        <path class="cls-1" d="M262.94,56.65c-6,1.06-12.15.08-18.83.5-6.54-4.03,16.71-.18,18.83-.5Z"/>
        <path class="cls-1" d="M104.45,129.5c1,.78-1.17,4.48-2.2,3.84-1.09-.68-1.28-2.33-1.54-2.97-.5-1.22,2.5-1.85,3.74-.88Z"/>
        <path class="cls-1" d="M122.85,48.43c2.52,12.64-10.69,24.86-20.58,30.53,4-11.22,10.96-21.62,20.58-30.53Z"/>
      </g>
    </g>
  </g>
  <g>
    <g>
      <path class="cls-1" d="M722.58,248.89h-32.33v-115.76c0-2.26-.44-4.37-1.3-6.33-.87-1.96-2.03-3.67-3.5-5.14-1.47-1.47-3.19-2.62-5.14-3.45-1.96-.83-4.07-1.24-6.33-1.24s-4.37.42-6.33,1.24c-1.96.83-3.67,1.98-5.14,3.45-1.47,1.47-2.62,3.19-3.45,5.14-.83,1.96-1.24,4.07-1.24,6.33v115.76h-32.44v-115.76c0-2.26-.41-4.37-1.24-6.33-.83-1.96-1.98-3.67-3.45-5.14s-3.18-2.62-5.14-3.45c-1.96-.83-4.07-1.24-6.33-1.24s-4.37.42-6.33,1.24c-1.96.83-3.67,1.98-5.14,3.45s-2.62,3.19-3.45,5.14c-.83,1.96-1.24,4.07-1.24,6.33v115.76h-32.44v-115.76c0-6.71,1.26-13.02,3.79-18.94,2.52-5.92,5.99-11.08,10.4-15.49s9.57-7.87,15.49-10.4c5.91-2.52,12.23-3.79,18.93-3.79,6.03,0,11.83,1.07,17.41,3.22,5.58,2.15,10.59,5.26,15.04,9.33,4.45-4.07,9.44-7.18,14.98-9.33,5.54-2.15,11.32-3.22,17.35-3.22,6.71,0,13.02,1.26,18.94,3.79,5.91,2.53,11.08,5.99,15.49,10.4,4.41,4.41,7.87,9.57,10.4,15.49,2.52,5.92,3.79,12.23,3.79,18.94v115.76Z"/>
      <path class="cls-1" d="M864.11,248.89h-7.46l-11.98-16.62c-2.94,2.64-6.05,5.11-9.33,7.4-3.28,2.3-6.72,4.3-10.34,5.99-3.62,1.69-7.33,3.03-11.14,4.01-3.81.98-7.67,1.47-11.59,1.47-8.52,0-16.52-1.43-24.02-4.3-7.5-2.86-14.06-7.03-19.67-12.49-5.61-5.46-10.04-12.15-13.28-20.07s-4.86-16.92-4.86-27.02c0-9.42,1.62-18.07,4.86-25.94,3.24-7.87,7.67-14.64,13.28-20.29,5.61-5.65,12.17-10.04,19.67-13.17,7.5-3.13,15.5-4.69,24.02-4.69,3.92,0,7.8.49,11.64,1.47,3.84.98,7.57,2.34,11.19,4.07,3.62,1.74,7.06,3.77,10.34,6.11,3.28,2.34,6.35,4.86,9.21,7.57l11.98-14.36h7.46v120.84ZM833.02,187.28c0-4.22-.81-8.31-2.43-12.27-1.62-3.96-3.82-7.46-6.61-10.51-2.79-3.05-6.05-5.5-9.78-7.35-3.73-1.85-7.71-2.77-11.93-2.77s-8.2.72-11.93,2.15c-3.73,1.43-6.97,3.54-9.72,6.33s-4.92,6.24-6.5,10.34c-1.58,4.11-2.37,8.8-2.37,14.08s.79,9.97,2.37,14.07c1.58,4.11,3.75,7.56,6.5,10.34s5.99,4.9,9.72,6.33c3.73,1.43,7.71,2.15,11.93,2.15s8.2-.92,11.93-2.77c3.73-1.85,6.99-4.3,9.78-7.35,2.79-3.05,4.99-6.56,6.61-10.51,1.62-3.96,2.43-8.04,2.43-12.26Z"/>
      <path class="cls-1" d="M918.49,248.89h-30.86v-121.07h7.46l10.17,14.36c4.97-4.52,10.63-8.01,16.96-10.46,6.33-2.45,12.89-3.67,19.67-3.67h27.24v30.75h-27.24c-3.24,0-6.29.6-9.16,1.81s-5.35,2.86-7.46,4.97-3.77,4.6-4.97,7.46c-1.21,2.87-1.81,5.92-1.81,9.16v66.7Z"/>
      <path class="cls-1" d="M1031.65,219.27c1.2.38,2.41.62,3.62.73,1.2.11,2.41.17,3.62.17,3.01,0,5.92-.41,8.7-1.24s5.41-2.02,7.86-3.56c2.45-1.54,4.64-3.43,6.56-5.65,1.92-2.22,3.48-4.69,4.69-7.4l22.61,22.72c-2.86,4.07-6.16,7.73-9.89,10.97-3.73,3.24-7.76,5.99-12.09,8.25-4.33,2.26-8.89,3.97-13.68,5.14s-9.7,1.75-14.75,1.75c-8.52,0-16.53-1.58-24.02-4.75-7.5-3.17-14.06-7.57-19.67-13.23-5.62-5.65-10.05-12.38-13.28-20.18-3.24-7.8-4.86-16.37-4.86-25.72s1.62-18.32,4.86-26.23c3.24-7.92,7.67-14.66,13.28-20.24,5.61-5.58,12.17-9.91,19.67-13,7.5-3.09,15.5-4.63,24.02-4.63,5.05,0,9.99.6,14.81,1.81,4.82,1.21,9.4,2.94,13.74,5.2,4.33,2.26,8.38,5.03,12.15,8.31,3.77,3.28,7.08,6.95,9.95,11.02l-57.88,69.75ZM1047.47,155.63c-1.44-.53-2.85-.87-4.24-1.02-1.39-.15-2.84-.23-4.35-.23-4.22,0-8.2.77-11.93,2.32-3.73,1.55-6.97,3.75-9.72,6.61-2.75,2.86-4.92,6.31-6.5,10.34-1.58,4.03-2.37,8.57-2.37,13.62,0,1.13.06,2.41.17,3.84.11,1.43.3,2.88.56,4.35.26,1.47.58,2.88.96,4.24s.87,2.56,1.47,3.62l35.95-47.7ZM1037.98,113.91l-12.78-16.84,33.58-31.31,18.54,23.63-39.34,24.53Z"/>
    </g>
    <g>
      <path class="cls-1" d="M618.38,269.93l75.63,95.07v-65.9c0-9.19-1.32-15.41-3.96-18.65-3.62-4.37-9.68-6.48-18.2-6.33v-4.18h50.64v4.18c-6.48.83-10.84,1.91-13.06,3.22-2.22,1.32-3.96,3.47-5.2,6.44-1.24,2.98-1.87,8.08-1.87,15.32v127.63h-3.84l-103.66-127.63v97.44c0,8.82,2.02,14.77,6.05,17.86,4.03,3.09,8.65,4.64,13.85,4.64h3.62v4.18h-54.38v-4.18c8.44-.07,14.32-1.81,17.64-5.2,3.32-3.39,4.97-9.16,4.97-17.29v-108.18l-3.28-4.07c-3.24-4.07-6.1-6.75-8.59-8.03-2.49-1.28-6.07-2-10.74-2.15v-4.18h54.38Z"/>
      <path class="cls-1" d="M785.57,314.35c9.19,0,17.75,2.37,25.66,7.12,7.92,4.75,13.92,11.49,18.03,20.24,4.11,8.74,6.16,18.31,6.16,28.71,0,15-3.81,27.55-11.42,37.64-9.19,12.21-21.89,18.31-38.1,18.31s-28.15-5.58-36.74-16.73c-8.59-11.15-12.89-24.08-12.89-38.78s4.39-28.35,13.17-39.62c8.78-11.27,20.82-16.9,36.12-16.9ZM786.02,322.38c-3.84,0-7.14,1.45-9.89,4.35-2.75,2.9-4.56,8.63-5.43,17.18-.87,8.55-1.3,20.44-1.3,35.67,0,8.06.53,15.6,1.58,22.61.83,5.35,2.6,9.42,5.31,12.21,2.71,2.79,5.8,4.18,9.27,4.18s6.22-.94,8.48-2.83c2.94-2.56,4.9-6.14,5.88-10.74,1.51-7.16,2.26-21.63,2.26-43.41,0-12.81-.72-21.61-2.15-26.4-1.43-4.79-3.54-8.27-6.33-10.46-1.96-1.58-4.52-2.37-7.69-2.37Z"/>
      <path class="cls-1" d="M892.4,269.93v58.22c8.89-9.19,18.61-13.79,29.16-13.79,7.23,0,14.05,2.13,20.46,6.39,6.41,4.26,11.42,10.31,15.04,18.14,3.62,7.84,5.43,16.88,5.43,27.13,0,11.53-2.3,22.01-6.9,31.43-4.6,9.42-10.74,16.6-18.43,21.53s-16.47,7.4-26.34,7.4c-5.73,0-10.81-.9-15.26-2.71-4.45-1.81-8.82-4.75-13.11-8.82l-17.52,11.42h-3.84v-134.41c0-6.1-.27-9.87-.79-11.3-.75-2.11-1.94-3.67-3.56-4.69-1.62-1.02-4.35-1.6-8.2-1.75v-4.18h43.86ZM892.4,338.21v47.03c0,9.57.22,15.68.68,18.31.75,4.45,2.56,8.05,5.43,10.8,2.86,2.75,6.52,4.13,10.97,4.13,3.84,0,7.14-1.09,9.89-3.28,2.75-2.18,5.05-6.52,6.89-13,1.85-6.48,2.77-18.16,2.77-35.04s-2.04-27.32-6.11-33.35c-2.94-4.37-6.89-6.55-11.87-6.55-6.48,0-12.7,3.65-18.65,10.96Z"/>
      <path class="cls-1" d="M1024.1,317.52v23.97c7.01-10.93,13.15-18.18,18.43-21.76,5.27-3.58,10.36-5.37,15.26-5.37,4.22,0,7.59,1.3,10.12,3.9,2.52,2.6,3.79,6.27,3.79,11.02,0,5.05-1.23,8.97-3.67,11.76-2.45,2.79-5.41,4.18-8.87,4.18-4,0-7.46-1.28-10.4-3.84-2.94-2.56-4.68-3.99-5.2-4.3-.75-.45-1.62-.68-2.6-.68-2.19,0-4.26.83-6.22,2.49-3.09,2.56-5.43,6.22-7.01,10.97-2.41,7.31-3.62,15.37-3.62,24.19v24.31l.11,6.33c0,4.3.26,7.05.79,8.25.9,2.04,2.24,3.52,4.01,4.47,1.77.94,4.77,1.53,8.99,1.75v4.07h-57.09v-4.07c4.59-.38,7.7-1.64,9.33-3.79,1.62-2.15,2.43-7.82,2.43-17.01v-58.44c0-6.03-.3-9.87-.9-11.53-.75-2.11-1.85-3.65-3.28-4.63-1.43-.98-3.96-1.66-7.57-2.03v-4.18h43.18Z"/>
      <path class="cls-1" d="M1168.34,366.58h-57.99c.68,14.02,4.41,25.09,11.19,33.23,5.2,6.26,11.45,9.38,18.76,9.38,4.52,0,8.63-1.26,12.32-3.79,3.69-2.52,7.65-7.06,11.87-13.62l3.84,2.49c-5.73,11.68-12.06,19.95-18.99,24.81-6.93,4.86-14.96,7.29-24.08,7.29-15.68,0-27.55-6.03-35.61-18.09-6.48-9.72-9.72-21.78-9.72-36.17,0-17.64,4.76-31.67,14.3-42.11,9.53-10.44,20.71-15.66,33.52-15.66,10.7,0,19.99,4.39,27.87,13.17,7.87,8.78,12.11,21.8,12.72,39.06ZM1140.53,359.01c0-12.13-.66-20.46-1.98-24.98-1.32-4.52-3.37-7.95-6.16-10.29-1.58-1.36-3.69-2.03-6.33-2.03-3.92,0-7.12,1.92-9.61,5.76-4.45,6.71-6.67,15.9-6.67,27.58v3.96h30.75Z"/>
    </g>
  </g>
</svg>