<?xml version="1.0" encoding="UTF-8"?>
<svg id="Layer_1" data-name="Layer 1" xmlns="http://www.w3.org/2000/svg" viewBox="0 0 432.95 232.1">
  <defs>
    <style>
      .cls-1 {
        fill: #667467;
      }

      .cls-2 {
        fill: #212121;
      }
    </style>
  </defs>
  <path class="cls-1" d="M86.22,67.31c.09,1.08.14,14.23.12,15.39l-.44,29.22c-.17,11.63-5.76,22.87-13.76,31.17-10.32,10.71-26.37,17.33-42.34,20.4-12.24,2.35-21.18,12.91-21.18,25.38v.49c37.29.22,68.46-15.11,80.11-52.35,2.19,19.96-4.25,40.84-19.13,54.94-3.43,3.25-7.18,5.84-11.16,8.03-11.68,6.42-19.09,18.52-19.08,31.85v.27c34.84-10.08,49.64-35.71,53.99-70.55,2.75,33.56,19.43,61.25,53.71,70.51h0c-.08-13.36-7.44-25.57-19.15-32.01-4.1-2.25-7.91-4.93-11.44-8.31-14.81-14.18-21.05-35.01-18.88-54.18,12.41,37.48,43.44,51.95,80,51.8v-.49c-.02-12.47-8.95-23.03-21.2-25.4-15.85-3.06-31.61-9.63-41.98-20.07-10.36-10.42-14.53-24.72-14.44-39.19l.16-24.78c-4.65-.11-9.29-12.21-13.9-12.14Z"/>
  <g>
    <path class="cls-2" d="M0,85.91l8.62-8.52v-16.97c0-13.68,11.09-24.77,24.77-24.79h0s.1,17.32.1,17.32L72.31,14.88l128.68,129.91h0c-24.77.06-48.57-9.67-66.21-27.06l-64.62-63.75-5.75,5.65C47.22,76.5,24.09,85.94,0,85.91h0Z"/>
    <path class="cls-2" d="M141.46,71.63L77.43,8.46h0c11.32-11.32,29.69-11.28,40.96.1l89.21,90.08h0c-24.75.08-48.52-9.63-66.14-27.01Z"/>
  </g>
  <path class="cls-2" d="M28.5,160.8h0c-5.39,0-9.77-4.37-9.77-9.77v-67.04l9.77-7.08v83.88Z"/>
  <g>
    <path class="cls-1" d="M222.68,39.87h6.47c14.52,0,22.97,11.75,22.97,25.48,0,9.5-3.7,17.16-11.09,22.44l12.8,40.13h-9.77l-11.88-37.36v37.36h-9.5V39.87ZM232.18,81.18c6.86-1.45,10.69-8.05,10.69-15.84s-3.83-15.18-10.69-16.1v31.94Z"/>
    <path class="cls-1" d="M274.42,39.87h15.97l10.56,88.05h-9.77l-3.17-25.21h-12.01l-3.04,25.21h-9.5l10.96-88.05ZM282.21,48.84l-5.28,44.62h10.16l-4.88-44.62Z"/>
    <path class="cls-1" d="M323.52,39.87v88.05h-9.5V39.87h9.5Z"/>
    <path class="cls-1" d="M338.96,39.87h19.4v8.45l-12.14,70.49h13.99v9.24h-23.5v-9.11l12.28-70.23h-10.03v-8.84Z"/>
    <path class="cls-1" d="M394.93,39.87v9.24h-12.01v28.12h10.82v9.24h-10.82v32.08h12.94v9.24h-22.44V39.87h21.52Z"/>
    <path class="cls-1" d="M408.13,118.54c10.82,0,15.18-4.62,15.18-12.54,0-16.24-15.05-30.62-15.05-46.47,0-11.75,6.47-19.67,17.95-19.67h3.56v8.98c-8.05,0-12.41,2.9-12.41,10.3,0,12.01,15.58,28.78,15.58,46.46,0,14.52-8.32,22.31-24.82,22.31v-9.37Z"/>
  </g>
  <g>
    <path class="cls-2" d="M222.82,175.15v-34.36h4.55v34.36h-4.55Z"/>
    <path class="cls-2" d="M235.24,175.15v-34.36h6.84l8.13,24.33c.75,2.27,1.3,3.96,1.64,5.09.39-1.25,1-3.09,1.83-5.51l8.23-23.91h6.12v34.36h-4.38v-28.76l-9.98,28.76h-4.1l-9.94-29.25v29.25h-4.38Z"/>
    <path class="cls-2" d="M273.99,158.42c0-5.7,1.53-10.17,4.59-13.39s7.02-4.84,11.86-4.84c3.17,0,6.03.76,8.58,2.27s4.49,3.63,5.82,6.34,2,5.79,2,9.22-.7,6.6-2.11,9.35-3.4,4.83-5.98,6.25-5.36,2.12-8.34,2.12c-3.23,0-6.12-.78-8.67-2.34s-4.48-3.7-5.79-6.4-1.97-5.56-1.97-8.58ZM278.67,158.49c0,4.14,1.11,7.4,3.34,9.79s5.02,3.57,8.38,3.57,6.24-1.2,8.45-3.61,3.32-5.82,3.32-10.24c0-2.8-.47-5.24-1.42-7.32s-2.33-3.7-4.15-4.85-3.86-1.72-6.13-1.72c-3.22,0-5.99,1.11-8.31,3.32s-3.48,5.9-3.48,11.07ZM287.53,138.68l3.12-6.56h5.53l-5.16,6.56h-3.49Z"/>
    <path class="cls-2" d="M322.52,175.15l-13.31-34.36h4.92l8.93,24.96c.72,2,1.32,3.88,1.8,5.62.53-1.88,1.15-3.75,1.85-5.62l9.28-24.96h4.64l-13.45,34.36h-4.66Z"/>
    <path class="cls-2" d="M344.81,175.15v-34.36h24.84v4.05h-20.3v10.52h19.01v4.03h-19.01v11.7h21.09v4.05h-25.64Z"/>
    <path class="cls-2" d="M377.51,175.15v-34.36h4.55v34.36h-4.55Z"/>
    <path class="cls-2" d="M388.52,164.11l4.29-.38c.2,1.72.68,3.13,1.42,4.23s1.89,1.99,3.46,2.67,3.32,1.02,5.27,1.02c1.73,0,3.27-.26,4.59-.77s2.32-1.22,2.96-2.12.97-1.88.97-2.94-.31-2.02-.94-2.82-1.66-1.48-3.09-2.03c-.92-.36-2.96-.92-6.12-1.68s-5.37-1.47-6.63-2.14c-1.64-.86-2.86-1.93-3.67-3.2s-1.21-2.7-1.21-4.28c0-1.73.49-3.36,1.48-4.86s2.42-2.65,4.31-3.43,3.99-1.17,6.3-1.17c2.55,0,4.79.41,6.74,1.23s3.44,2.03,4.49,3.62,1.61,3.4,1.69,5.41l-4.36.33c-.23-2.17-1.03-3.81-2.38-4.92s-3.35-1.66-5.99-1.66-4.75.5-6.01,1.51-1.89,2.22-1.89,3.64c0,1.23.45,2.25,1.34,3.05.88.8,3.16,1.61,6.86,2.45s6.23,1.57,7.61,2.19c2,.92,3.48,2.09,4.43,3.5s1.43,3.04,1.43,4.89-.52,3.55-1.57,5.17-2.55,2.88-4.51,3.77-4.17,1.35-6.62,1.35c-3.11,0-5.71-.45-7.82-1.36s-3.75-2.27-4.95-4.09-1.82-3.88-1.89-6.18Z"/>
  </g>
</svg>